<svg xmlns="http://www.w3.org/2000/svg" xmlns:xlink="http://www.w3.org/1999/xlink" viewBox="0 0 1366 547.15"><defs><style>.cls-1{fill:#88c1e9;}.cls-2{fill:url(#Degradado_sin_nombre_5);}.cls-3{fill:url(#Degradado_sin_nombre_34);}.cls-4{fill:url(#Degradado_sin_nombre_8);}.cls-5{fill:#0a65b2;}.cls-6{fill:url(#Degradado_sin_nombre_37);}.cls-7{fill:url(#Degradado_sin_nombre_51);}.cls-8{fill:url(#Degradado_sin_nombre_55);}.cls-9{fill:url(#Degradado_sin_nombre_66);}.cls-10{fill:url(#Degradado_sin_nombre_41);}.cls-11{fill:url(#Degradado_sin_nombre_48);}.cls-12{fill:url(#Degradado_sin_nombre_89);}.cls-13{fill:url(#Degradado_sin_nombre_76);}.cls-14{fill:#fff;}</style><linearGradient id="Degradado_sin_nombre_5" x1="221.15" y1="121.95" x2="356.05" y2="121.95" gradientUnits="userSpaceOnUse"><stop offset="0" stop-color="#0a77bd"/><stop offset="1" stop-color="#23a2dc"/></linearGradient><linearGradient id="Degradado_sin_nombre_34" x1="201.26" y1="189.39" x2="421.4" y2="189.39" gradientUnits="userSpaceOnUse"><stop offset="0" stop-color="#71b1de"/><stop offset="1" stop-color="#4b93d0"/></linearGradient><linearGradient id="Degradado_sin_nombre_8" x1="139.98" y1="167.65" x2="421.4" y2="167.65" gradientUnits="userSpaceOnUse"><stop offset="0" stop-color="#0068b0"/><stop offset="1" stop-color="#00aae3"/></linearGradient><linearGradient id="Degradado_sin_nombre_37" x1="140.54" y1="205.38" x2="445.01" y2="205.38" gradientUnits="userSpaceOnUse"><stop offset="0" stop-color="#2186c8"/><stop offset="1" stop-color="#27a9e0"/></linearGradient><linearGradient id="Degradado_sin_nombre_51" x1="177.13" y1="319.6" x2="453.27" y2="319.6" gradientUnits="userSpaceOnUse"><stop offset="0" stop-color="#2d944f"/><stop offset="1" stop-color="#56ac4f"/></linearGradient><linearGradient id="Degradado_sin_nombre_55" x1="177.12" y1="352.25" x2="347.1" y2="352.25" gradientUnits="userSpaceOnUse"><stop offset="0.01" stop-color="#60b24d"/><stop offset="1" stop-color="#61b34e"/></linearGradient><linearGradient id="Degradado_sin_nombre_66" x1="180.92" y1="387.33" x2="399.63" y2="168.62" gradientUnits="userSpaceOnUse"><stop offset="0" stop-color="#60b24d"/><stop offset="0.18" stop-color="#60b24d"/><stop offset="0.37" stop-color="#30877e"/><stop offset="0.52" stop-color="#106b9e"/><stop offset="0.6" stop-color="#0460aa"/></linearGradient><linearGradient id="Degradado_sin_nombre_41" x1="128.45" y1="246.2" x2="401.75" y2="246.2" gradientUnits="userSpaceOnUse"><stop offset="0" stop-color="#85bde7"/><stop offset="1" stop-color="#489ed7"/></linearGradient><linearGradient id="Degradado_sin_nombre_48" x1="187.53" y1="315.48" x2="455.63" y2="315.48" gradientUnits="userSpaceOnUse"><stop offset="0" stop-color="#5cac45"/><stop offset="1" stop-color="#00969c"/></linearGradient><linearGradient id="Degradado_sin_nombre_89" x1="303.33" y1="450.5" x2="363.32" y2="273.86" gradientUnits="userSpaceOnUse"><stop offset="0" stop-color="#d3ba23"/><stop offset="0.12" stop-color="#cdb824"/><stop offset="0.29" stop-color="#bcb428"/><stop offset="0.48" stop-color="#a0ac2d"/><stop offset="0.69" stop-color="#79a235"/><stop offset="0.86" stop-color="#53983d"/></linearGradient><linearGradient id="Degradado_sin_nombre_76" x1="231.46" y1="352.32" x2="453.25" y2="352.32" gradientUnits="userSpaceOnUse"><stop offset="0" stop-color="#b1d046"/><stop offset="0.44" stop-color="#9fc140"/><stop offset="0.77" stop-color="#86ab38"/><stop offset="1" stop-color="#7aa134"/></linearGradient></defs><g id="Capa_2" data-name="Capa 2"><g id="Isotipo"><path class="cls-1" d="M354,121.64l-17.22,6.54-20.31,7.71-86.13-1.55s-7.66-.26-9-4.66a3.41,3.41,0,0,1-.08-1.69,4.35,4.35,0,0,1,.92-1.58,9.56,9.56,0,0,1,3.17-2.32c2.61-1.19,5.28-2.28,8-3.32,1.66-.65,3.32-1.25,5-1.84a162.55,162.55,0,0,1,52.53-9.17c.57,0,1.15,0,1.72,0A163.53,163.53,0,0,1,354,121.64Z"/><path class="cls-2" d="M356.05,122.5l-19.27,5.68-20.31,6L230.34,133s-7.66-.21-9-3.62a1.61,1.61,0,0,1-.15-.7,3.5,3.5,0,0,1,.07-.65,4.35,4.35,0,0,1,.92-1.58,9.56,9.56,0,0,1,3.17-2.32c2.61-1.19,5.28-2.28,8-3.32,1.66-.65,3.32-1.25,5-1.84a162.55,162.55,0,0,1,52.53-9.17c.57,0,1.15,0,1.72,0A163.53,163.53,0,0,1,354,121.64c.62.24,1.23.51,1.85.76l.09,0Z"/><path class="cls-3" d="M421.4,172.56c-6.54.73-16.6,1.88-28.85,3.43-62.48,8-98.93,16.09-138.66,22.8-14.16,2.39-31.83,5.13-52.63,7.74,14.72-2.36,39.18-6.93,84.66-16.89s50-11.74,67.72-14A404.86,404.86,0,0,1,421.4,172.56Z"/><path class="cls-4" d="M421.4,172.56a405.06,405.06,0,0,0-67.76,3.05c-17.72,2.29-22.1,4-67.72,14-66.33,14.52-87.93,17.56-99.85,19-19.77,2.47-35.94,3.57-46.09,4.11A163.67,163.67,0,0,1,173.09,161l0,0h0a399.13,399.13,0,0,0,48.35-4.24c12.3-1.83,27.48-4.68,82.92-19.81,12.62-3.45,30.33-8.35,51.62-14.46,1.29.56,3.09,1.37,5.22,2.38a177.56,177.56,0,0,1,31.7,19.3A163.53,163.53,0,0,1,421.4,172.56Z"/><path class="cls-5" d="M277,229.11l-15.29,6.71q-15.18-2.61-30.49-5.38-46.16-8.37-90.65-17.65c11.88.08,21.58.57,28.2,1,7.72.49,29.24,2,91.21,12.44C266.69,227.34,272.5,228.33,277,229.11Z"/><path class="cls-6" d="M445,214l-164.32,15.8c-4.71-.82-11.93-2.08-20.74-3.55-62-10.42-83.49-12-91.21-12.44-6.62-.41-16.32-.9-28.2-1,10.18-.57,26.11-1.67,45.53-4.09,3.75-.47,8.45-1.09,15.19-2.17,20.8-2.61,38.47-5.35,52.63-7.74,31.4-5.31,60.75-11.49,102.54-17.79A274.68,274.68,0,0,1,445,214Z"/><path class="cls-7" d="M453.27,304.4a158.6,158.6,0,0,0-24.8-10.29,161.46,161.46,0,0,0-56.65-7.31L177.13,352.6a729.66,729.66,0,0,1,170.06-.49,162.07,162.07,0,0,1,34.73-17.79c21.58-7.88,36.39-7.83,57.33-20.2A117.78,117.78,0,0,0,453.27,304.4Z"/><path class="cls-8" d="M269.57,347.4a725.26,725.26,0,0,0-75.18,3.33l-17.27,5.74c28.2-2.43,59.1-3.82,92.34-3.44,27.65.31,53.61,1.83,77.64,4.08q-.87-2.61-1.77-5.19A729,729,0,0,0,269.57,347.4Z"/><path class="cls-9" d="M456.17,273.56A166.24,166.24,0,0,0,445,214c-3.26-.64-7.9-1.48-13.5-2.27-40.29-5.65-71.93-.08-91.53,3.54-39.58,7.31-69.05,19.92-90,29-.52.22.09,0-28.52,13.18-44.89,20.75-67.67,31-84.6,23.18a34.26,34.26,0,0,1-8.44-5.53l0,0h0A163,163,0,0,0,152,358.43a181.2,181.2,0,0,0,26.36-2.14c16.63-2.59,30.93-7.21,49.63-15,23.24-9.69,35.92-17.06,49.83-24,14.9-7.48,50.75-24.35,91.82-33.49a316.84,316.84,0,0,1,86.47-6.91s0,0,0,0v-.06C456.16,275.68,456.17,274.62,456.17,273.56Z"/><path class="cls-10" d="M401.75,209.37c-26.24-.52-47.29,3.23-61.77,5.9-39.57,7.3-69.06,19.93-90,29.06-.51.22.09-.05-28.52,13.17-44.89,20.75-67.67,31-84.6,23.18a33.65,33.65,0,0,1-8.38-5.48,45.11,45.11,0,0,0,7.51,2,49.93,49.93,0,0,0,23.56-1.92c24.52-7.64,101.23-45.81,161.23-59.07C355.36,208.59,386.59,208.77,401.75,209.37Z"/><path class="cls-11" d="M455.63,276.8c-6.9.06-16.45.34-27.73,1.37-14.29,1.33-36.33,4.3-67.24,13.28-22,6.4-36.56,12.37-65.5,24.25-25.47,10.44-46.05,19.94-76.7,30.5a215.55,215.55,0,0,1-30.93,8.42c13-2.76,25.28-7,40.49-13.33,23.23-9.69,35.91-17.07,49.82-24.06,14.9-7.48,50.75-24.35,91.82-33.49A316.83,316.83,0,0,1,455.63,276.8Z"/><path class="cls-12" d="M453.25,304.4a163.9,163.9,0,0,1-157,133,153.47,153.47,0,0,1-24.65-1.24c-3.35-.43-5.84-.88-7.37-1.15-8.91-1.6-18.7-3.35-29.06-8-9.19-4.15-15.83-7.15-17.9-13.95-.19-.63-2.16-7.43,1.44-11.73,4.95-5.9,16-1.89,30.69-1.06a124.51,124.51,0,0,0,36.84-4.81c31.34-8.83,52.44-32.76,55.21-36,8.84-10.25,11.82-17.56,23.57-24.62,6.3-3.79,12.53-5.43,24.72-8.56,27-6.94,37.39-5.17,52.9-14.24A72.14,72.14,0,0,0,453.25,304.4Z"/><path class="cls-13" d="M453.25,304.4A72.68,72.68,0,0,1,442.62,312c-15.52,9.07-25.9,7.3-52.91,14.24-12.19,3.14-18.42,4.77-24.72,8.56-11.75,7.05-14.73,14.37-23.56,24.62-2.78,3.23-23.88,27.14-55.23,36a124.48,124.48,0,0,1-36.84,4.81c-6.84-.38-12.89-1.46-17.9-1.9a143.46,143.46,0,0,0,15.22-.89c10.37-1.13,42-4.6,69.3-25.38,24.83-18.88,22.57-34.11,47.45-44.51,9.19-3.85,18.29-5.44,28-7.16,20.1-3.52,31.43-2.13,48.29-9A88.17,88.17,0,0,0,453.25,304.4Z"/></g><rect class="cls-14" x="811.56" y="268.74" width="135.98" height="22.86" rx="3.4"/><rect class="cls-14" x="811.56" y="174.86" width="135.98" height="22.86" rx="3.4"/><path class="cls-14" d="M1237.62,288.65a2.71,2.71,0,0,1-2.08,2.52,30.19,30.19,0,0,1-6.72.43c-1.76,0-3.57,0-5.33,0s-3.32,0-5-.12a9.17,9.17,0,0,1-7-4.38,29.07,29.07,0,0,1-2.22-3.88c-7.16-14.41-14.18-28.86-21.3-43.26q-5.78-11.65-11.73-23.21c-4-7.74-9.32-8.18-13.47-.55-6.15,11.29-11.56,23-17.27,34.49s-11.34,22.78-16.94,34.2a14.88,14.88,0,0,1-1.86,3,10.27,10.27,0,0,1-7.67,3.87h-2.93c-3.12-.06-6.24.12-9.35,0a7.85,7.85,0,0,1-4.2-1.12,2.8,2.8,0,0,1-1.4-2.52,3.88,3.88,0,0,1,.43-1.13q2.19-4.32,4.34-8.68l5.3-10.63,6.55-13.14,7.29-14.63,7.54-15.12,7.27-14.59,6.51-13.06,5.24-10.52c1.16-2.32,2.29-4.66,3.47-7,.89-1.72,1.57-3,3.46-3.82a14.42,14.42,0,0,1,6-.89c2.84.05,5.68.06,8.51.06,1.54,0,3.07.09,4.6.15a5.85,5.85,0,0,1,4,1.27,6.89,6.89,0,0,1,1.23,1.9q4.51,9.08,9,18.13l7.59,15.24,8.53,17.13,8.7,17.47,8.1,16.25,6.73,13.5q2.85,5.74,5.72,11.47A3,3,0,0,1,1237.62,288.65Z"/><path class="cls-14" d="M1087.5,286.07a3.25,3.25,0,0,1-2.42,5.43h-23.46l-.76-.86-36.55-40.5-35.65,39.51L987,291.5H962.36a2.74,2.74,0,0,1-2-4.57l48.59-53.87-47.75-52.93a3.18,3.18,0,0,1,2.36-5.31h23.64a5.94,5.94,0,0,1,1.18,1.32l36,39.87,35.29-39.11,1.86-2.08h19.67a25.83,25.83,0,0,1,2.64,0h2.57a2.64,2.64,0,0,1,2.63,2.65,2.48,2.48,0,0,1-.69,1.73l-48.59,53.86Z"/><rect class="cls-14" x="811.56" y="215.51" width="135.98" height="22.86" rx="3.4"/><path class="cls-14" d="M799.18,277v5.65a24.41,24.41,0,0,1-.41,4.67,6.47,6.47,0,0,1-3.51,3.69l0,0c-2,.47-4.88.49-9.22.49H753.66v-.24c-6.09,0-12.2.15-18.31.24h-10.8q-5.19-.07-10.35-.41a53.06,53.06,0,0,1-28.15-10.57,56.4,56.4,0,0,1-21.87-35.23,60.5,60.5,0,0,1-.91-10q-.09-14-.08-27.92,0-12.06,0-24.1c0-6.47,2.07-8.51,8.53-8.59h5c5.59,0,8.18,1.18,9.15,4.95a21,21,0,0,1,.48,4.84c0,13.57-.27,27.14.11,40.69.19,6.49.4,13.42,2.73,19.32,6.6,16.71,20.06,24,37.66,24,20.86.08,41.72.06,62.57.09a20.31,20.31,0,0,1,6.09.67,6.35,6.35,0,0,1,3,3.07.21.21,0,0,1,0,.11A17.44,17.44,0,0,1,799.18,277Z"/><path class="cls-14" d="M651.26,206.54c0,.52,0,1,0,1.54s-.06.92-.1,1.37v.1A31.73,31.73,0,0,1,624,237.93c-.21,0-.44,0-.66,0-6.88.19-13.75.28-20.62.32H576.11c-6.55,0-13.07-.06-19.6,0-3.69,0-5.64-2-6.45-5.4a7.78,7.78,0,0,1-.21-1.66c-.4-13.09.22-15.4,8.54-15.76h30.66a.45.45,0,0,0,0-.11q12-.15,24-.33a22.78,22.78,0,0,0,6.62-1c3.26-1,5.6-3,5.88-6.81s-1.46-6.59-5-7.82a24.61,24.61,0,0,0-7.77-1.49q-11.88-.07-23.75-.09c-12.26,0-24.5,0-36.74,0-.7,0-1.41,0-2.11.08-8.91.51-11.72,3.38-11.74,12.22q-.09,36.1-.08,72.21c0,4.81-.93,7.33-3.73,8.45,0,0-.06,0-.08.06a15.9,15.9,0,0,1-5.42.76l-3,0a26.5,26.5,0,0,1-7.25-.61,6.45,6.45,0,0,1-3-2.78c-.76-2.06-.76-5.33-.76-10.57v-44.5q0-24.54,0-49.1c0-3.26.36-5.43,1.35-6.83a0,0,0,0,1,0,0,3.7,3.7,0,0,1,.46-.57c1.37-1.38,3.63-1.83,7.29-1.83h8.49l.26.06h16.43c17.72,0,35.42.15,53.14,0h17a31.77,31.77,0,0,1,31.71,30C651.24,205.42,651.26,206,651.26,206.54Z"/><g id="Eslogan"><path class="cls-14" d="M634.14,321.6h23.65v4.21h-18.9V339h17.68v4.21H638.89v13.32H658.1v4.21h-24Z"/><path class="cls-14" d="M670.26,360.78h-4.52V331.39h4.37V336h.38c1.38-3,4.13-5,8.57-5,6,0,10,3.6,10,11.09v18.68h-4.52V342.41c0-4.61-2.54-7.35-6.73-7.35s-7.5,2.91-7.5,8Z"/><path class="cls-14" d="M695.89,346.31c0-9,5.28-15.3,13.24-15.3,6.12,0,12.62,3.75,12.62,14.69v1.91H700.42c.21,6.3,3.87,9.72,9.17,9.72,3.54,0,6.19-1.53,7.34-4.59l4.36,1.23c-1.37,4.43-5.73,7.42-11.7,7.42C701.09,361.39,695.89,355.34,695.89,346.31Zm21.27-2.6c0-5-3.14-8.65-8-8.65-5.17,0-8.4,4.08-8.71,8.65Z"/><path class="cls-14" d="M728.64,331.39H733v4.44h.3a8,8,0,0,1,7.66-4.9,6.3,6.3,0,0,1,3.75,1.07l-1.54,3.83a5.67,5.67,0,0,0-2.6-.53c-4.28,0-7.42,2.92-7.42,6.88v18.6h-4.51Z"/><path class="cls-14" d="M748.22,366.52l3.6-2.53a9.18,9.18,0,0,0,8.42,4.44c4.74,0,8.18-2.22,8.18-7.12v-6H768c-1,1.61-2.83,5-8.57,5-7.11,0-12.47-5.21-12.47-14.39S752.13,331,759.55,331c5.74,0,7.57,3.52,8.57,5.05h.46v-4.67h4.36v30.23c0,7.57-5.66,10.79-12.7,10.79C753.68,372.41,750.06,369.6,748.22,366.52Zm20.28-20.67c0-6.35-2.91-10.79-8.42-10.79-5.74,0-8.57,4.83-8.57,10.79,0,6.13,2.91,10.41,8.57,10.41C765.52,356.26,768.5,352.36,768.5,345.85Z"/><path class="cls-14" d="M781.2,331.39h4.51v29.39H781.2Zm4.9-12.85h5.28l-6,8.87h-4Z"/><path class="cls-14" d="M792.6,352.44c0-6.74,5.95-7.94,11.4-8.65s7.58-.5,7.58-2.68V341c0-3.77-2.05-6-6.2-6-4.31,0-6.66,2.29-7.65,4.44l-4.29-1.53c2.3-5.36,7.35-6.89,11.79-6.89,3.75,0,10.86,1.07,10.86,10.41v19.36h-4.51v-4h-.23c-.92,1.91-3.6,4.66-8.72,4.66C797,361.46,792.6,358.17,792.6,352.44Zm19-2.3V346c-.77.92-5.89,1.45-7.81,1.68-3.52.46-6.65,1.53-6.65,5,0,3.14,2.6,4.75,6.19,4.75C808.67,357.41,811.58,353.81,811.58,350.14Z"/><path class="cls-14" d="M859.55,371.8V356.26h-.38c-1,1.61-2.91,5.13-8.57,5.13-7.35,0-12.48-5.89-12.48-15.23S843.25,331,850.67,331c5.74,0,7.5,3.52,8.5,5.05h.53v-4.67h4.37V371.8Zm-8.34-36.74c-5.74,0-8.57,4.83-8.57,11s2.91,11.25,8.57,11.25c5.43,0,8.42-4.59,8.42-11.25S856.72,335.06,851.21,335.06Z"/><path class="cls-14" d="M890.84,331.39h4.52v29.39h-4.52v-5h-.3a9.17,9.17,0,0,1-8.73,5.36c-5.51,0-9.48-3.6-9.48-11.1V331.39h4.51v18.37c0,4.28,2.68,7,6.43,7a7.64,7.64,0,0,0,7.57-8Z"/><path class="cls-14" d="M902.24,346.31c0-9,5.28-15.3,13.24-15.3,6.12,0,12.63,3.75,12.63,14.69v1.91H906.78c.21,6.3,3.86,9.72,9.16,9.72,3.54,0,6.2-1.53,7.34-4.59l4.37,1.23c-1.38,4.43-5.74,7.42-11.71,7.42C907.44,361.39,902.24,355.34,902.24,346.31Zm21.27-2.6c0-5-3.13-8.65-8-8.65-5.17,0-8.4,4.08-8.7,8.65Z"/><path class="cls-14" d="M948.76,352.44c0-6.74,6-7.94,11.4-8.65s7.58-.5,7.58-2.68V341c0-3.77-2-6-6.2-6s-6.66,2.29-7.65,4.44l-4.29-1.53c2.3-5.36,7.35-6.89,11.79-6.89,3.75,0,10.86,1.07,10.86,10.41v19.36h-4.51v-4h-.23c-.92,1.91-3.6,4.66-8.73,4.66C953.2,361.46,948.76,358.17,948.76,352.44Zm19-2.3V346c-.77.92-5.89,1.45-7.81,1.68-3.52.46-6.65,1.53-6.65,5,0,3.14,2.6,4.75,6.19,4.75C964.83,357.41,967.74,353.81,967.74,350.14Z"/><path class="cls-14" d="M992.6,360.78H988l-10.86-29.39H982l8.12,23.42h.3l8.11-23.42h4.9Z"/><path class="cls-14" d="M1008.06,352.44c0-6.74,6-7.94,11.4-8.65s7.58-.5,7.58-2.68V341c0-3.77-2-6-6.2-6-4.31,0-6.66,2.29-7.66,4.44l-4.28-1.53c2.3-5.36,7.35-6.89,11.78-6.89,3.75,0,10.87,1.07,10.87,10.41v19.36H1027v-4h-.23c-.92,1.91-3.6,4.66-8.73,4.66C1012.5,361.46,1008.06,358.17,1008.06,352.44Zm19-2.3V346c-.77.92-5.9,1.45-7.81,1.68-3.52.46-6.66,1.53-6.66,5,0,3.14,2.61,4.75,6.2,4.75C1024.13,357.41,1027,353.81,1027,350.14Z"/><path class="cls-14" d="M1044.32,360.78h-4.51V331.39h4.36V336h.38c1.38-3,4.14-5,8.57-5,6,0,10,3.6,10,11.09v18.68h-4.51V342.41c0-4.61-2.55-7.35-6.74-7.35s-7.5,2.91-7.5,8Z"/><path class="cls-14" d="M1070.49,357.33l16.68-21.42v-.31H1071v-4.21h22V335l-16.22,21.27v.31h16.75v4.21h-23Z"/><path class="cls-14" d="M1099.11,352.44c0-6.74,6-7.94,11.4-8.65s7.57-.5,7.57-2.68V341c0-3.77-2-6-6.19-6-4.31,0-6.66,2.29-7.66,4.44L1100,337.9c2.3-5.36,7.34-6.89,11.78-6.89,3.75,0,10.87,1.07,10.87,10.41v19.36h-4.52v-4h-.22c-.92,1.91-3.6,4.66-8.73,4.66C1103.55,361.46,1099.11,358.17,1099.11,352.44Zm19-2.3V346c-.76.92-5.89,1.45-7.8,1.68-3.52.46-6.66,1.53-6.66,5,0,3.14,2.6,4.75,6.2,4.75C1115.18,357.41,1118.08,353.81,1118.08,350.14Z"/></g></g></svg>