<svg xmlns="http://www.w3.org/2000/svg" xmlns:xlink="http://www.w3.org/1999/xlink" viewBox="0 0 600.81 561.29"><defs><style>.cls-1{fill:#88c1e9;}.cls-2{fill:url(#Degradado_sin_nombre_5);}.cls-3{fill:url(#Degradado_sin_nombre_34);}.cls-4{fill:url(#Degradado_sin_nombre_8);}.cls-5{fill:#0a65b2;}.cls-6{fill:url(#Degradado_sin_nombre_37);}.cls-7{fill:url(#Degradado_sin_nombre_51);}.cls-8{fill:url(#Degradado_sin_nombre_55);}.cls-9{fill:url(#Degradado_sin_nombre_66);}.cls-10{fill:url(#Degradado_sin_nombre_41);}.cls-11{fill:url(#Degradado_sin_nombre_48);}.cls-12{fill:url(#Degradado_sin_nombre_3);}.cls-13{fill:url(#Degradado_sin_nombre_76);}</style><linearGradient id="Degradado_sin_nombre_5" x1="229.28" y1="129.02" x2="364.18" y2="129.02" gradientUnits="userSpaceOnUse"><stop offset="0" stop-color="#0a77bd"/><stop offset="1" stop-color="#23a2dc"/></linearGradient><linearGradient id="Degradado_sin_nombre_34" x1="209.39" y1="196.47" x2="429.53" y2="196.47" gradientUnits="userSpaceOnUse"><stop offset="0" stop-color="#71b1de"/><stop offset="1" stop-color="#4b93d0"/></linearGradient><linearGradient id="Degradado_sin_nombre_8" x1="148.11" y1="174.72" x2="429.53" y2="174.72" gradientUnits="userSpaceOnUse"><stop offset="0" stop-color="#0068b0"/><stop offset="1" stop-color="#00aae3"/></linearGradient><linearGradient id="Degradado_sin_nombre_37" x1="148.67" y1="212.45" x2="453.14" y2="212.45" gradientUnits="userSpaceOnUse"><stop offset="0" stop-color="#2186c8"/><stop offset="1" stop-color="#27a9e0"/></linearGradient><linearGradient id="Degradado_sin_nombre_51" x1="185.26" y1="326.68" x2="461.4" y2="326.68" gradientUnits="userSpaceOnUse"><stop offset="0" stop-color="#2d944f"/><stop offset="1" stop-color="#56ac4f"/></linearGradient><linearGradient id="Degradado_sin_nombre_55" x1="185.25" y1="359.32" x2="355.23" y2="359.32" gradientUnits="userSpaceOnUse"><stop offset="0.01" stop-color="#60b24d"/><stop offset="1" stop-color="#61b34e"/></linearGradient><linearGradient id="Degradado_sin_nombre_66" x1="189.05" y1="394.4" x2="407.76" y2="175.7" gradientUnits="userSpaceOnUse"><stop offset="0" stop-color="#60b24d"/><stop offset="0.18" stop-color="#60b24d"/><stop offset="0.37" stop-color="#30877e"/><stop offset="0.52" stop-color="#106b9e"/><stop offset="0.6" stop-color="#0460aa"/></linearGradient><linearGradient id="Degradado_sin_nombre_41" x1="136.58" y1="253.27" x2="409.88" y2="253.27" gradientUnits="userSpaceOnUse"><stop offset="0" stop-color="#85bde7"/><stop offset="1" stop-color="#489ed7"/></linearGradient><linearGradient id="Degradado_sin_nombre_48" x1="195.66" y1="322.55" x2="463.76" y2="322.55" gradientUnits="userSpaceOnUse"><stop offset="0" stop-color="#5cac45"/><stop offset="1" stop-color="#00969c"/></linearGradient><linearGradient id="Degradado_sin_nombre_3" x1="311.46" y1="457.57" x2="371.45" y2="280.93" gradientUnits="userSpaceOnUse"><stop offset="0" stop-color="#d3ba23"/><stop offset="0.12" stop-color="#cdb824"/><stop offset="0.29" stop-color="#bcb428"/><stop offset="0.48" stop-color="#a0ac2d"/><stop offset="0.69" stop-color="#79a235"/><stop offset="0.86" stop-color="#53983d"/></linearGradient><linearGradient id="Degradado_sin_nombre_76" x1="239.59" y1="359.39" x2="461.38" y2="359.39" gradientUnits="userSpaceOnUse"><stop offset="0" stop-color="#b1d046"/><stop offset="0.44" stop-color="#9fc140"/><stop offset="0.77" stop-color="#86ab38"/><stop offset="1" stop-color="#7aa134"/></linearGradient></defs><g id="Capa_9" data-name="Capa 9"><g id="Isotipo"><path class="cls-1" d="M362.13,128.72l-17.22,6.53L324.6,143l-86.13-1.55s-7.66-.27-9-4.66a3.92,3.92,0,0,1-.15-1,3.59,3.59,0,0,1,.07-.65,4.35,4.35,0,0,1,.92-1.58,9.49,9.49,0,0,1,3.17-2.31c2.61-1.2,5.28-2.29,8-3.32,1.66-.65,3.32-1.26,5-1.85a162.55,162.55,0,0,1,52.53-9.17l1.72,0A163.34,163.34,0,0,1,362.13,128.72Z"/><path class="cls-2" d="M364.18,129.57l-19.27,5.68-20.31,6L238.47,140s-7.66-.21-9-3.61a1.81,1.81,0,0,1-.15-.71,3.59,3.59,0,0,1,.07-.65,4.35,4.35,0,0,1,.92-1.58,9.49,9.49,0,0,1,3.17-2.31c2.61-1.2,5.28-2.29,8-3.32,1.66-.65,3.32-1.26,5-1.85a162.55,162.55,0,0,1,52.53-9.17l1.72,0a163.34,163.34,0,0,1,61.48,11.92c.62.23,1.24.5,1.85.75l.09,0Z"/><path class="cls-3" d="M429.53,179.64c-6.54.72-16.6,1.87-28.85,3.42-62.48,8-98.93,16.09-138.66,22.8-14.16,2.39-31.83,5.13-52.63,7.75,14.72-2.36,39.18-6.94,84.67-16.89s50-11.74,67.71-14A404.86,404.86,0,0,1,429.53,179.64Z"/><path class="cls-4" d="M429.53,179.64a404.86,404.86,0,0,0-67.76,3c-17.72,2.29-22.1,4-67.72,14-66.33,14.53-87.93,17.56-99.84,19.05-19.78,2.47-36,3.58-46.1,4.12a163.86,163.86,0,0,1,33.11-51.8l0,0h0a396.63,396.63,0,0,0,48.35-4.23c12.3-1.84,27.48-4.69,82.92-19.82,12.62-3.44,30.33-8.34,51.62-14.46,1.29.56,3.09,1.37,5.23,2.39a177.1,177.1,0,0,1,31.69,19.3A162.84,162.84,0,0,1,429.53,179.64Z"/><path class="cls-5" d="M285.1,236.19l-15.29,6.71q-15.18-2.61-30.49-5.39-46.15-8.35-90.65-17.65c11.88.09,21.58.57,28.2,1,7.72.48,29.24,2,91.21,12.43C274.82,234.42,280.63,235.4,285.1,236.19Z"/><path class="cls-6" d="M453.14,221l-164.32,15.8c-4.71-.83-11.93-2.08-20.74-3.56-62-10.41-83.49-11.95-91.21-12.43-6.62-.42-16.32-.9-28.2-1,10.18-.56,26.11-1.67,45.53-4.09,3.75-.47,8.45-1.09,15.19-2.16,20.8-2.62,38.47-5.36,52.63-7.75,31.4-5.31,60.75-11.49,102.54-17.79a275,275,0,0,1,88.58,33Z"/><path class="cls-7" d="M461.4,311.47a157.67,157.67,0,0,0-24.8-10.28A161,161,0,0,0,380,293.88L185.26,359.67a730.33,730.33,0,0,1,170.06-.48,161.73,161.73,0,0,1,34.73-17.8c21.58-7.87,36.4-7.83,57.33-20.2A116.6,116.6,0,0,0,461.4,311.47Z"/><path class="cls-8" d="M277.7,354.47a727.91,727.91,0,0,0-75.18,3.34l-17.27,5.74c28.2-2.44,59.1-3.82,92.35-3.44,27.65.31,53.6,1.82,77.63,4.08-.58-1.74-1.17-3.48-1.77-5.2A731.76,731.76,0,0,0,277.7,354.47Z"/><path class="cls-9" d="M464.3,280.63a166.16,166.16,0,0,0-11.16-59.55c-3.26-.64-7.9-1.49-13.5-2.27-40.29-5.65-71.93-.08-91.53,3.54-39.57,7.3-69.05,19.92-90,29.05-.52.22.09,0-28.52,13.18-44.88,20.74-67.67,31-84.6,23.18a34.56,34.56,0,0,1-8.44-5.53h0a163,163,0,0,0,23.63,83.25,181.2,181.2,0,0,0,26.36-2.14c16.63-2.58,30.93-7.2,49.63-15,23.24-9.7,35.92-17.06,49.83-24.05,14.9-7.49,50.75-24.36,91.82-33.5a316.91,316.91,0,0,1,86.47-6.9l0,0,0-.06C464.29,282.76,464.3,281.69,464.3,280.63Z"/><path class="cls-10" d="M409.88,216.44c-26.24-.51-47.29,3.23-61.77,5.9-39.57,7.3-69.05,19.93-90,29.06-.51.22.09,0-28.52,13.17-44.88,20.75-67.67,31-84.6,23.19a33.62,33.62,0,0,1-8.38-5.49,44.15,44.15,0,0,0,7.51,2,49.8,49.8,0,0,0,23.56-1.92c24.52-7.64,101.23-45.81,161.23-59.07C363.49,215.66,394.72,215.84,409.88,216.44Z"/><path class="cls-11" d="M463.76,283.88c-6.9.06-16.45.34-27.73,1.37-14.29,1.33-36.33,4.29-67.24,13.27-22,6.4-36.56,12.38-65.5,24.25-25.47,10.44-46.05,19.94-76.7,30.5a215.55,215.55,0,0,1-30.93,8.42c13-2.75,25.28-7,40.49-13.33,23.23-9.69,35.91-17.06,49.82-24.06,14.9-7.47,50.75-24.35,91.82-33.49A316.89,316.89,0,0,1,463.76,283.88Z"/><path class="cls-12" d="M461.38,311.47a163.89,163.89,0,0,1-157,133,154.54,154.54,0,0,1-24.65-1.23c-3.35-.44-5.84-.89-7.37-1.16-8.91-1.59-18.7-3.34-29.06-8-9.19-4.16-15.83-7.15-17.9-13.95-.19-.64-2.16-7.43,1.44-11.74,4.95-5.9,16-1.89,30.69-1.06a124.51,124.51,0,0,0,36.84-4.81c31.34-8.83,52.44-32.75,55.21-36,8.84-10.26,11.82-17.57,23.57-24.63,6.3-3.78,12.53-5.43,24.72-8.56,27-6.93,37.39-5.17,52.9-14.23A72,72,0,0,0,461.38,311.47Z"/><path class="cls-13" d="M461.38,311.47a72.57,72.57,0,0,1-10.63,7.59c-15.52,9.07-25.9,7.3-52.9,14.23-12.2,3.14-18.43,4.78-24.72,8.57-11.76,7.05-14.74,14.36-23.57,24.61-2.78,3.23-23.88,27.14-55.22,36a124.56,124.56,0,0,1-36.85,4.81c-6.84-.39-12.89-1.46-17.9-1.91a143.21,143.21,0,0,0,15.22-.88c10.37-1.14,42-4.6,69.3-25.38,24.83-18.88,22.57-34.12,47.45-44.52,9.19-3.85,18.29-5.44,28-7.15,20.1-3.53,31.43-2.14,48.29-9A88,88,0,0,0,461.38,311.47Z"/></g></g></svg>