<svg xmlns="http://www.w3.org/2000/svg" viewBox="0 0 995.55 350.62"><defs><style>.cls-1{fill:#fff;}</style></defs><g id="Capa_8" data-name="Capa 8"><rect class="cls-1" x="432.99" y="116.91" width="135.98" height="22.86" rx="3.4"/><path class="cls-1" d="M859,230.7a2.71,2.71,0,0,1-2.08,2.52,30.19,30.19,0,0,1-6.72.43c-1.76,0-3.57,0-5.33,0s-3.32,0-5-.12a9.17,9.17,0,0,1-7-4.38,29.07,29.07,0,0,1-2.22-3.88c-7.16-14.41-14.18-28.85-21.3-43.26q-5.76-11.65-11.72-23.2c-4-7.75-9.33-8.19-13.48-.56-6.15,11.29-11.55,23-17.26,34.49s-11.35,22.78-16.94,34.2a14.47,14.47,0,0,1-1.87,3,10.25,10.25,0,0,1-7.67,3.87H737.5c-3.11-.06-6.23.12-9.34,0a7.83,7.83,0,0,1-4.2-1.12,2.8,2.8,0,0,1-1.4-2.52A3.86,3.86,0,0,1,723,229q2.19-4.32,4.35-8.68l5.3-10.63,6.55-13.14L746.47,182,754,166.84l7.27-14.59,6.51-13.06L773,128.67c1.16-2.32,2.29-4.66,3.48-7,.88-1.72,1.56-3,3.46-3.83a14.4,14.4,0,0,1,6-.89c2.83.05,5.67.06,8.51.06,1.54,0,3.06.09,4.59.15a5.91,5.91,0,0,1,4,1.27,6.89,6.89,0,0,1,1.23,1.9q4.51,9.07,9,18.14l7.59,15.23,8.53,17.13,8.71,17.47,8.09,16.25,6.73,13.5c1.91,3.83,3.81,7.65,5.73,11.47A3.21,3.21,0,0,1,859,230.7Z"/><path class="cls-1" d="M708.93,228.12a3.25,3.25,0,0,1-2.42,5.43H683l-.76-.86-36.54-40.5L610.09,231.7l-1.66,1.85H583.78a2.73,2.73,0,0,1-2.74-2.74,2.68,2.68,0,0,1,.71-1.83l48.59-53.86-47.76-52.93a3.19,3.19,0,0,1,2.36-5.32h23.64a6.17,6.17,0,0,1,1.18,1.32l36,39.87L681,119l1.87-2.08h19.66c.89,0,1.77-.05,2.65,0h2.57a2.63,2.63,0,0,1,2.62,2.65,2.52,2.52,0,0,1-.68,1.73l-48.59,53.87Z"/><rect class="cls-1" x="432.99" y="157.56" width="135.98" height="22.86" rx="3.4"/><rect class="cls-1" x="432.99" y="210.79" width="135.98" height="22.86" rx="3.4"/><path class="cls-1" d="M420.61,219.07v5.65a23.51,23.51,0,0,1-.42,4.67,6.42,6.42,0,0,1-3.5,3.69l-.05,0c-2,.47-4.88.49-9.22.49H375.09v-.24c-6.09,0-12.2.15-18.31.24H346c-3.47-.05-6.91-.19-10.36-.42a53,53,0,0,1-28.15-10.56,56.4,56.4,0,0,1-21.87-35.23,60.5,60.5,0,0,1-.91-10q-.09-14-.08-27.92,0-12.06,0-24.1c0-6.47,2.08-8.51,8.53-8.58q2.51,0,5,0c5.6,0,8.19,1.18,9.16,5a21.46,21.46,0,0,1,.47,4.83c0,13.57-.26,27.14.12,40.69.19,6.49.4,13.42,2.72,19.32,6.6,16.71,20.06,24,37.66,24,20.86.08,41.72.06,62.57.09a20.31,20.31,0,0,1,6.09.67,6.35,6.35,0,0,1,3,3.07.21.21,0,0,1,0,.11A17.44,17.44,0,0,1,420.61,219.07Z"/><path class="cls-1" d="M272.69,148.59c0,.52,0,1,0,1.55s-.06.91-.09,1.37v.09A31.74,31.74,0,0,1,245.4,180c-.21,0-.44,0-.67,0-6.87.19-13.74.28-20.61.32H197.55c-6.55,0-13.08-.06-19.61,0-3.69,0-5.63-2-6.45-5.4a8.38,8.38,0,0,1-.21-1.66c-.4-13.09.23-15.4,8.55-15.76h30.66s0-.07,0-.11l24-.32a23.07,23.07,0,0,0,6.62-1c3.26-1,5.6-3.05,5.89-6.82s-1.47-6.58-5-7.82a24.61,24.61,0,0,0-7.77-1.49q-11.87-.08-23.75-.09c-12.26,0-24.49,0-36.73,0-.71,0-1.41,0-2.12.08-8.9.51-11.72,3.39-11.74,12.22q-.09,36.1-.08,72.21c0,4.81-.93,7.33-3.73,8.45,0,0-.05,0-.07.06a15.93,15.93,0,0,1-5.43.76l-3,0a26.46,26.46,0,0,1-7.25-.61,6.35,6.35,0,0,1-3-2.78c-.76-2.06-.76-5.33-.76-10.57V175.15q0-24.56,0-49.11c0-3.25.36-5.42,1.35-6.83a0,0,0,0,1,0,0,3.14,3.14,0,0,1,.45-.57c1.37-1.37,3.64-1.83,7.29-1.83h8.49l.27.06h16.43c17.71.05,35.42.15,53.14,0h16.36l.21,0,.42,0a31.76,31.76,0,0,1,31.71,30.05C272.67,147.47,272.69,148,272.69,148.59Z"/></g></svg>