<svg xmlns="http://www.w3.org/2000/svg" viewBox="0 0 991.57 429.8"><defs><style>.cls-1{fill:#fff;}</style></defs><g id="Capa_3" data-name="Capa 3"><rect class="cls-1" x="431" y="116.19" width="135.98" height="22.86" rx="3.4"/><path class="cls-1" d="M857.06,230a2.7,2.7,0,0,1-2.08,2.52,30.23,30.23,0,0,1-6.72.43c-1.77,0-3.57,0-5.33,0s-3.32,0-5-.11a9.17,9.17,0,0,1-7-4.38,28.63,28.63,0,0,1-2.23-3.89c-7.15-14.4-14.18-28.85-21.29-43.26q-5.77-11.64-11.73-23.2c-4-7.75-9.33-8.18-13.47-.55-6.15,11.29-11.56,23-17.27,34.49S753.58,214.8,748,226.22a15.48,15.48,0,0,1-1.86,3,10.28,10.28,0,0,1-7.67,3.86h-2.93c-3.12-.06-6.24.12-9.35,0A7.86,7.86,0,0,1,722,232a2.78,2.78,0,0,1-1.4-2.52,3.9,3.9,0,0,1,.42-1.12q2.19-4.33,4.35-8.68l5.3-10.63,6.55-13.14,7.29-14.63L752,166.12l7.27-14.59,6.51-13.06L771,128c1.16-2.33,2.29-4.66,3.47-7,.88-1.72,1.56-3,3.46-3.83a14.42,14.42,0,0,1,6-.89c2.84.06,5.67.06,8.51.06,1.54,0,3.07.09,4.6.15a5.82,5.82,0,0,1,4,1.28,6.57,6.57,0,0,1,1.24,1.9q4.51,9.06,9,18.13L818.88,153l8.53,17.12,8.7,17.47,8.1,16.26,6.73,13.5q2.85,5.73,5.72,11.46A3.3,3.3,0,0,1,857.06,230Z"/><path class="cls-1" d="M706.94,227.4a3.25,3.25,0,0,1-2.42,5.42H681.05l-.76-.85-36.54-40.51L608.1,231l-1.66,1.84H581.8a2.73,2.73,0,0,1-2.75-2.74,2.66,2.66,0,0,1,.71-1.82l48.59-53.87L580.6,121.46a3.18,3.18,0,0,1,2.36-5.31H606.6a5.94,5.94,0,0,1,1.18,1.31l36,39.88L679,118.22l1.86-2.07h19.66a23.43,23.43,0,0,1,2.65,0h2.57a2.63,2.63,0,0,1,2.63,2.64,2.52,2.52,0,0,1-.69,1.74l-48.59,53.86Z"/><rect class="cls-1" x="431" y="156.84" width="135.98" height="22.86" rx="3.4"/><rect class="cls-1" x="431" y="210.07" width="135.98" height="22.86" rx="3.4"/><path class="cls-1" d="M418.62,218.35V224a24.26,24.26,0,0,1-.42,4.66,6.44,6.44,0,0,1-3.5,3.7h-.06c-2,.48-4.87.5-9.21.5H373.09v-.25c-6.09,0-12.2.15-18.31.25H344c-3.46-.06-6.91-.19-10.35-.42a53,53,0,0,1-28.15-10.56,56.4,56.4,0,0,1-21.87-35.23,60.73,60.73,0,0,1-.92-10q-.07-14-.07-27.92,0-12,0-24.1c0-6.47,2.07-8.5,8.52-8.58,1.68,0,3.35,0,5.05,0,5.59,0,8.18,1.18,9.15,5a20.83,20.83,0,0,1,.48,4.83c0,13.57-.27,27.15.11,40.7.19,6.49.4,13.42,2.72,19.32,6.61,16.71,20.07,24,37.67,24,20.86.07,41.72.05,62.56.09a19.9,19.9,0,0,1,6.09.67,6.35,6.35,0,0,1,3,3.06.28.28,0,0,1,0,.12A18.3,18.3,0,0,1,418.62,218.35Z"/><path class="cls-1" d="M270.69,147.87c0,.51,0,1,0,1.54s-.06.91-.1,1.37v.1a31.72,31.72,0,0,1-27.16,28.37c-.21,0-.44,0-.67,0q-10.3.28-20.61.33H195.55c-6.55,0-13.08-.06-19.6,0-3.7,0-5.64-2-6.46-5.41a8.28,8.28,0,0,1-.21-1.65c-.4-13.1.23-15.4,8.55-15.76h30.66s0-.08,0-.12q12-.13,24-.32a22.78,22.78,0,0,0,6.62-1c3.25-1,5.6-3.05,5.88-6.81.32-3.91-1.46-6.59-5-7.83a24.77,24.77,0,0,0-7.76-1.48c-7.92-.06-15.84-.08-23.76-.1q-18.37,0-36.73,0c-.7,0-1.41,0-2.11.07-8.91.52-11.73,3.39-11.75,12.22q-.08,36.12-.07,72.21c0,4.82-.93,7.33-3.73,8.45l-.08.06a15.66,15.66,0,0,1-5.42.76l-3.05,0c-3.31,0-5.63-.09-7.25-.61a6.4,6.4,0,0,1-3-2.78c-.76-2-.76-5.33-.76-10.56v-44.5q0-24.55,0-49.11c0-3.25.36-5.42,1.35-6.83a0,0,0,0,1,0,0,3.19,3.19,0,0,1,.46-.57c1.37-1.37,3.63-1.83,7.29-1.83h8.49l.26.06h16.43c17.72.06,35.42.15,53.14,0h16.37l.21,0,.42,0a31.77,31.77,0,0,1,31.71,30C270.68,146.75,270.69,147.3,270.69,147.87Z"/><g id="Eslogan"><path class="cls-1" d="M253.58,262.92h23.65v4.21h-18.9v13.24H276v4.21H258.33v13.31h19.2v4.21H253.58Z"/><path class="cls-1" d="M289.7,302.1h-4.52V272.72h4.36v4.59h.39c1.37-3,4.13-5,8.57-5,5.95,0,9.94,3.59,9.94,11.09V302.1h-4.51V283.74c0-4.61-2.54-7.35-6.73-7.35s-7.5,2.91-7.5,8Z"/><path class="cls-1" d="M315.33,287.64c0-9,5.28-15.3,13.24-15.3,6.12,0,12.62,3.74,12.62,14.69v1.91H319.86c.21,6.29,3.86,9.72,9.16,9.72,3.54,0,6.2-1.53,7.35-4.59l4.36,1.22c-1.38,4.44-5.74,7.42-11.71,7.42C320.53,302.71,315.33,296.67,315.33,287.64ZM336.6,285c0-5-3.14-8.65-8-8.65-5.17,0-8.4,4.08-8.71,8.65Z"/><path class="cls-1" d="M348.07,272.72h4.36v4.44h.31a7.94,7.94,0,0,1,7.65-4.9,6.26,6.26,0,0,1,3.75,1.07l-1.53,3.83a5.54,5.54,0,0,0-2.6-.54c-4.28,0-7.42,2.93-7.42,6.89V302.1h-4.52Z"/><path class="cls-1" d="M367.66,307.84l3.6-2.52a9.19,9.19,0,0,0,8.41,4.43c4.75,0,8.19-2.21,8.19-7.11v-6h-.38c-1,1.61-2.83,5-8.57,5-7.12,0-12.47-5.2-12.47-14.38,0-9,5.12-14.92,12.55-14.92,5.74,0,7.57,3.51,8.57,5H388v-4.66h4.36v30.22c0,7.58-5.67,10.79-12.71,10.79C373.11,313.73,369.5,310.92,367.66,307.84Zm20.28-20.66c0-6.35-2.91-10.79-8.42-10.79-5.74,0-8.57,4.82-8.57,10.79s2.91,10.41,8.57,10.41C385,297.59,387.94,293.68,387.94,287.18Z"/><path class="cls-1" d="M400.64,272.72h4.51V302.1h-4.51Zm4.89-12.86h5.28l-6,8.88h-4Z"/><path class="cls-1" d="M412,293.76c0-6.73,5.95-7.94,11.4-8.65s7.58-.49,7.58-2.67v-.16c0-3.77-2-6-6.2-6-4.31,0-6.66,2.3-7.65,4.44l-4.29-1.53c2.3-5.35,7.35-6.88,11.78-6.88,3.75,0,10.87,1.07,10.87,10.4V302.1H431v-4h-.23c-.92,1.92-3.6,4.67-8.73,4.67C416.48,302.79,412,299.5,412,293.76Zm19-2.3v-4.13c-.77.92-5.9,1.46-7.81,1.69-3.52.46-6.66,1.53-6.66,5,0,3.14,2.6,4.74,6.2,4.74C428.11,298.73,431,295.14,431,291.46Z"/><path class="cls-1" d="M479,313.12V297.59h-.38c-1,1.6-2.91,5.12-8.57,5.12-7.35,0-12.48-5.89-12.48-15.22s5.13-15.15,12.55-15.15c5.74,0,7.5,3.51,8.5,5h.53v-4.66h4.36v40.4Zm-8.34-36.73c-5.74,0-8.57,4.82-8.57,11s2.91,11.25,8.57,11.25c5.43,0,8.42-4.59,8.42-11.25S476.16,276.39,470.65,276.39Z"/><path class="cls-1" d="M510.28,272.72h4.52V302.1h-4.52v-5H510a9.18,9.18,0,0,1-8.73,5.35c-5.51,0-9.49-3.59-9.49-11.09V272.72h4.52v18.36c0,4.29,2.68,7,6.43,7a7.63,7.63,0,0,0,7.57-8Z"/><path class="cls-1" d="M521.68,287.64c0-9,5.28-15.3,13.24-15.3,6.12,0,12.62,3.74,12.62,14.69v1.91H526.21c.21,6.29,3.87,9.72,9.17,9.72,3.54,0,6.19-1.53,7.34-4.59l4.36,1.22c-1.37,4.44-5.73,7.42-11.7,7.42C526.88,302.71,521.68,296.67,521.68,287.64ZM543,285c0-5-3.13-8.65-8-8.65-5.17,0-8.4,4.08-8.71,8.65Z"/><path class="cls-1" d="M568.2,293.76c0-6.73,5.95-7.94,11.4-8.65s7.58-.49,7.58-2.67v-.16c0-3.77-2-6-6.2-6-4.31,0-6.66,2.3-7.65,4.44L569,279.22c2.3-5.35,7.35-6.88,11.79-6.88,3.74,0,10.86,1.07,10.86,10.4V302.1h-4.51v-4H587c-.92,1.92-3.6,4.67-8.73,4.67C572.64,302.79,568.2,299.5,568.2,293.76Zm19-2.3v-4.13c-.77.92-5.9,1.46-7.81,1.69-3.52.46-6.66,1.53-6.66,5,0,3.14,2.61,4.74,6.2,4.74C584.27,298.73,587.18,295.14,587.18,291.46Z"/><path class="cls-1" d="M612,302.1h-4.59l-10.86-29.38h4.89l8.11,23.41h.31L618,272.72h4.9Z"/><path class="cls-1" d="M627.5,293.76c0-6.73,6-7.94,11.4-8.65s7.57-.49,7.57-2.67v-.16c0-3.77-2-6-6.2-6s-6.65,2.3-7.65,4.44l-4.28-1.53c2.29-5.35,7.34-6.88,11.78-6.88,3.75,0,10.87,1.07,10.87,10.4V302.1h-4.52v-4h-.23c-.91,1.92-3.59,4.67-8.72,4.67C631.93,302.79,627.5,299.5,627.5,293.76Zm19-2.3v-4.13c-.76.92-5.89,1.46-7.8,1.69-3.52.46-6.66,1.53-6.66,5,0,3.14,2.6,4.74,6.2,4.74C643.57,298.73,646.47,295.14,646.47,291.46Z"/><path class="cls-1" d="M663.76,302.1h-4.51V272.72h4.36v4.59H664c1.38-3,4.13-5,8.57-5,6,0,10,3.59,10,11.09V302.1H678V283.74c0-4.61-2.55-7.35-6.74-7.35s-7.5,2.91-7.5,8Z"/><path class="cls-1" d="M689.93,298.66l16.68-21.43v-.3H690.47v-4.21h22v3.59L696.2,297.59v.3H713v4.21h-23Z"/><path class="cls-1" d="M718.55,293.76c0-6.73,6-7.94,11.4-8.65s7.57-.49,7.57-2.67v-.16c0-3.77-2-6-6.2-6s-6.65,2.3-7.65,4.44l-4.28-1.53c2.29-5.35,7.34-6.88,11.78-6.88,3.75,0,10.87,1.07,10.87,10.4V302.1h-4.52v-4h-.23c-.91,1.92-3.59,4.67-8.72,4.67C723,302.79,718.55,299.5,718.55,293.76Zm19-2.3v-4.13c-.76.92-5.89,1.46-7.8,1.69-3.52.46-6.66,1.53-6.66,5,0,3.14,2.6,4.74,6.2,4.74C734.61,298.73,737.52,295.14,737.52,291.46Z"/></g></g></svg>