<svg xmlns="http://www.w3.org/2000/svg" viewBox="0 0 995.53 429.8"><defs><style>.cls-1{fill:#003677;}</style></defs><g id="Capa_4" data-name="Capa 4"><rect class="cls-1" x="432.98" y="116.19" width="135.98" height="22.86" rx="3.4"/><path class="cls-1" d="M859,230a2.69,2.69,0,0,1-2.08,2.52,30.23,30.23,0,0,1-6.72.43c-1.77,0-3.57,0-5.33,0s-3.32,0-5-.11a9.17,9.17,0,0,1-7-4.38,29.72,29.72,0,0,1-2.23-3.89c-7.15-14.4-14.17-28.85-21.29-43.26q-5.77-11.64-11.73-23.2c-4-7.75-9.32-8.18-13.47-.55-6.15,11.29-11.56,23-17.27,34.49S755.56,214.8,750,226.22a15.48,15.48,0,0,1-1.86,3,10.28,10.28,0,0,1-7.67,3.86H737.5c-3.12-.06-6.24.12-9.35,0A7.86,7.86,0,0,1,724,232a2.78,2.78,0,0,1-1.4-2.52,3.66,3.66,0,0,1,.43-1.12q2.19-4.33,4.34-8.68l5.3-10.63,6.55-13.14,7.29-14.63L754,166.12l7.27-14.59,6.51-13.06L773,128c1.16-2.33,2.29-4.66,3.47-7,.89-1.72,1.57-3,3.46-3.83a14.42,14.42,0,0,1,6-.89c2.84.06,5.68.06,8.51.06,1.54,0,3.07.09,4.6.15a5.86,5.86,0,0,1,4,1.28,6.75,6.75,0,0,1,1.23,1.9q4.51,9.06,9,18.13L820.86,153l8.53,17.12,8.7,17.47,8.1,16.26,6.73,13.5q2.85,5.73,5.72,11.46A3.3,3.3,0,0,1,859,230Z"/><path class="cls-1" d="M708.92,227.4a3.25,3.25,0,0,1-2.42,5.42H683l-.77-.85-36.54-40.51L610.08,231l-1.66,1.84H583.78a2.72,2.72,0,0,1-2.74-2.74,2.65,2.65,0,0,1,.7-1.82l48.59-53.87-47.75-52.93a3.18,3.18,0,0,1,2.36-5.31h23.64a5.94,5.94,0,0,1,1.18,1.31l36,39.88L681,118.22l1.86-2.07h19.66a23.43,23.43,0,0,1,2.65,0h2.57a2.63,2.63,0,0,1,2.63,2.64,2.52,2.52,0,0,1-.69,1.74l-48.59,53.86Z"/><rect class="cls-1" x="432.98" y="156.84" width="135.98" height="22.86" rx="3.4"/><rect class="cls-1" x="432.98" y="210.07" width="135.98" height="22.86" rx="3.4"/><path class="cls-1" d="M420.6,218.35V224a24.26,24.26,0,0,1-.42,4.66,6.44,6.44,0,0,1-3.5,3.7h-.06c-2,.48-4.87.5-9.21.5H375.07v-.25c-6.09,0-12.2.15-18.31.25H346c-3.46-.06-6.91-.19-10.35-.42a53.05,53.05,0,0,1-28.15-10.56,56.4,56.4,0,0,1-21.87-35.23,59.65,59.65,0,0,1-.91-10q-.09-14-.08-27.92,0-12,0-24.1c0-6.47,2.07-8.5,8.52-8.58,1.68,0,3.35,0,5.05,0,5.59,0,8.18,1.18,9.15,5a20.83,20.83,0,0,1,.48,4.83c0,13.57-.27,27.15.11,40.7.19,6.49.4,13.42,2.72,19.32,6.61,16.71,20.07,24,37.67,24,20.86.07,41.72.05,62.56.09a20,20,0,0,1,6.1.67,6.37,6.37,0,0,1,3,3.06.28.28,0,0,1,0,.12A17.83,17.83,0,0,1,420.6,218.35Z"/><path class="cls-1" d="M272.68,147.87c0,.51,0,1,0,1.54s-.06.91-.1,1.37v.1a31.72,31.72,0,0,1-27.16,28.37c-.21,0-.44,0-.66,0q-10.32.28-20.62.33H197.53c-6.55,0-13.07-.06-19.6,0-3.7,0-5.64-2-6.46-5.41a7.6,7.6,0,0,1-.2-1.65c-.4-13.1.22-15.4,8.54-15.76h30.66a.53.53,0,0,1,0-.12q12-.13,24-.32a22.78,22.78,0,0,0,6.62-1c3.26-1,5.6-3.05,5.88-6.81.33-3.91-1.46-6.59-5-7.83a24.88,24.88,0,0,0-7.77-1.48c-7.92-.06-15.84-.08-23.75-.1q-18.39,0-36.74,0c-.7,0-1.41,0-2.11.07-8.91.52-11.73,3.39-11.74,12.22q-.09,36.12-.08,72.21c0,4.82-.93,7.33-3.73,8.45l-.08.06a15.66,15.66,0,0,1-5.42.76l-3,0c-3.31,0-5.63-.09-7.25-.61a6.45,6.45,0,0,1-3-2.78c-.76-2-.76-5.33-.76-10.56v-44.5q0-24.55,0-49.11c0-3.25.36-5.42,1.35-6.83a0,0,0,0,1,0,0,3.19,3.19,0,0,1,.46-.57c1.37-1.37,3.63-1.83,7.29-1.83h8.49l.26.06h16.43c17.72.06,35.42.15,53.14,0H240.3l.21,0,.42,0a31.77,31.77,0,0,1,31.71,30C272.66,146.75,272.68,147.3,272.68,147.87Z"/><g id="Eslogan"><path class="cls-1" d="M255.56,262.92h23.65v4.21h-18.9v13.24H278v4.21H260.31v13.31h19.2v4.21H255.56Z"/><path class="cls-1" d="M291.68,302.1h-4.52V272.72h4.36v4.59h.39c1.37-3,4.13-5,8.57-5,5.95,0,9.95,3.59,9.95,11.09V302.1h-4.52V283.74c0-4.61-2.54-7.35-6.73-7.35s-7.5,2.91-7.5,8Z"/><path class="cls-1" d="M317.31,287.64c0-9,5.28-15.3,13.24-15.3,6.12,0,12.62,3.74,12.62,14.69v1.91H321.84c.21,6.29,3.87,9.72,9.16,9.72,3.54,0,6.2-1.53,7.35-4.59l4.36,1.22c-1.37,4.44-5.74,7.42-11.71,7.42C322.51,302.71,317.31,296.67,317.31,287.64Zm21.27-2.6c0-5-3.14-8.65-8-8.65-5.17,0-8.4,4.08-8.71,8.65Z"/><path class="cls-1" d="M350.05,272.72h4.37v4.44h.3a7.94,7.94,0,0,1,7.65-4.9,6.26,6.26,0,0,1,3.75,1.07l-1.53,3.83a5.54,5.54,0,0,0-2.6-.54c-4.28,0-7.42,2.93-7.42,6.89V302.1h-4.52Z"/><path class="cls-1" d="M369.64,307.84l3.6-2.52a9.2,9.2,0,0,0,8.42,4.43c4.74,0,8.18-2.21,8.18-7.11v-6h-.38c-1,1.61-2.83,5-8.57,5-7.12,0-12.47-5.2-12.47-14.38,0-9,5.13-14.92,12.55-14.92,5.74,0,7.57,3.51,8.57,5H390v-4.66h4.36v30.22c0,7.58-5.66,10.79-12.7,10.79C375.09,313.73,371.48,310.92,369.64,307.84Zm20.28-20.66c0-6.35-2.91-10.79-8.42-10.79-5.74,0-8.57,4.82-8.57,10.79s2.91,10.41,8.57,10.41C386.94,297.59,389.92,293.68,389.92,287.18Z"/><path class="cls-1" d="M402.62,272.72h4.51V302.1h-4.51Zm4.9-12.86h5.27l-6,8.88h-4Z"/><path class="cls-1" d="M414,293.76c0-6.73,6-7.94,11.4-8.65s7.58-.49,7.58-2.67v-.16c0-3.77-2.05-6-6.2-6-4.31,0-6.66,2.3-7.65,4.44l-4.29-1.53c2.3-5.35,7.35-6.88,11.78-6.88,3.75,0,10.87,1.07,10.87,10.4V302.1H433v-4h-.23c-.92,1.92-3.6,4.67-8.73,4.67C418.46,302.79,414,299.5,414,293.76Zm19-2.3v-4.13c-.77.92-5.89,1.46-7.81,1.69-3.52.46-6.66,1.53-6.66,5,0,3.14,2.61,4.74,6.2,4.74C430.09,298.73,433,295.14,433,291.46Z"/><path class="cls-1" d="M481,313.12V297.59h-.38c-1,1.6-2.91,5.12-8.57,5.12-7.35,0-12.48-5.89-12.48-15.22s5.13-15.15,12.55-15.15c5.74,0,7.5,3.51,8.5,5h.53v-4.66h4.36v40.4Zm-8.34-36.73c-5.74,0-8.57,4.82-8.57,11s2.91,11.25,8.57,11.25c5.43,0,8.42-4.59,8.42-11.25S478.14,276.39,472.63,276.39Z"/><path class="cls-1" d="M512.26,272.72h4.52V302.1h-4.52v-5H512a9.18,9.18,0,0,1-8.73,5.35c-5.51,0-9.49-3.59-9.49-11.09V272.72h4.52v18.36c0,4.29,2.68,7,6.43,7a7.63,7.63,0,0,0,7.57-8Z"/><path class="cls-1" d="M523.66,287.64c0-9,5.28-15.3,13.24-15.3,6.12,0,12.62,3.74,12.62,14.69v1.91H528.19c.21,6.29,3.87,9.72,9.17,9.72,3.54,0,6.2-1.53,7.34-4.59l4.37,1.22c-1.38,4.44-5.74,7.42-11.71,7.42C528.86,302.71,523.66,296.67,523.66,287.64Zm21.27-2.6c0-5-3.13-8.65-8-8.65-5.17,0-8.4,4.08-8.71,8.65Z"/><path class="cls-1" d="M570.18,293.76c0-6.73,6-7.94,11.4-8.65s7.58-.49,7.58-2.67v-.16c0-3.77-2-6-6.2-6-4.31,0-6.66,2.3-7.65,4.44L571,279.22c2.3-5.35,7.35-6.88,11.79-6.88,3.75,0,10.86,1.07,10.86,10.4V302.1h-4.51v-4h-.23c-.92,1.92-3.6,4.67-8.73,4.67C574.62,302.79,570.18,299.5,570.18,293.76Zm19-2.3v-4.13c-.77.92-5.9,1.46-7.81,1.69-3.52.46-6.66,1.53-6.66,5,0,3.14,2.61,4.74,6.2,4.74C586.25,298.73,589.16,295.14,589.16,291.46Z"/><path class="cls-1" d="M614,302.1h-4.59l-10.86-29.38h4.89l8.12,23.41h.3L620,272.72h4.9Z"/><path class="cls-1" d="M629.48,293.76c0-6.73,5.95-7.94,11.4-8.65s7.57-.49,7.57-2.67v-.16c0-3.77-2-6-6.19-6-4.31,0-6.66,2.3-7.66,4.44l-4.28-1.53c2.3-5.35,7.34-6.88,11.78-6.88,3.75,0,10.87,1.07,10.87,10.4V302.1h-4.52v-4h-.22c-.92,1.92-3.6,4.67-8.73,4.67C633.92,302.79,629.48,299.5,629.48,293.76Zm19-2.3v-4.13c-.76.92-5.89,1.46-7.8,1.69-3.52.46-6.66,1.53-6.66,5,0,3.14,2.6,4.74,6.2,4.74C645.55,298.73,648.45,295.14,648.45,291.46Z"/><path class="cls-1" d="M665.74,302.1h-4.51V272.72h4.36v4.59H666c1.38-3,4.14-5,8.57-5,6,0,10,3.59,10,11.09V302.1H680V283.74c0-4.61-2.55-7.35-6.74-7.35s-7.5,2.91-7.5,8Z"/><path class="cls-1" d="M691.91,298.66l16.68-21.43v-.3H692.45v-4.21h22v3.59l-16.22,21.28v.3h16.75v4.21h-23Z"/><path class="cls-1" d="M720.53,293.76c0-6.73,6-7.94,11.4-8.65s7.57-.49,7.57-2.67v-.16c0-3.77-2-6-6.2-6s-6.65,2.3-7.65,4.44l-4.28-1.53c2.29-5.35,7.34-6.88,11.78-6.88,3.75,0,10.87,1.07,10.87,10.4V302.1H739.5v-4h-.23c-.91,1.92-3.59,4.67-8.72,4.67C725,302.79,720.53,299.5,720.53,293.76Zm19-2.3v-4.13c-.76.92-5.89,1.46-7.8,1.69-3.52.46-6.66,1.53-6.66,5,0,3.14,2.6,4.74,6.2,4.74C736.6,298.73,739.5,295.14,739.5,291.46Z"/></g></g></svg>